<?xml version="1.0" standalone="no"?>
<!DOCTYPE svg PUBLIC "-//W3C//DTD SVG 1.1//EN" "http://www.w3.org/Graphics/SVG/1.1/DTD/svg11.dtd">
<svg width="2007px" height="2007px" version="1.1" xmlns="http://www.w3.org/2000/svg" xmlns:xlink="http://www.w3.org/1999/xlink" xml:space="preserve" style="fill-rule:evenodd;clip-rule:evenodd;stroke-linejoin:round;stroke-miterlimit:1.41421;">
    <g>
        <g id="Layer1">
            <g>
                <path d="M421.365,1802.62L583.602,1802.62L824.771,1582.47C829.294,1578.71 830.316,1577.59 835.33,1574.49C842.845,1569.83 851.217,1566.58 859.908,1564.95C865.708,1563.87 867.214,1564 873.089,1563.73L1134.78,1563.73C1140.66,1564 1142.17,1563.87 1147.97,1564.95C1156.66,1566.58 1165.03,1569.83 1172.54,1574.49C1177.56,1577.59 1178.58,1578.71 1183.1,1582.47L1424.27,1802.62L1586.51,1802.62L1586.51,205.251L1424.27,205.251L1183.1,425.405C1178.58,429.165 1177.56,430.28 1172.54,433.389C1165.03,438.047 1156.66,441.294 1147.97,442.92C1142.17,444.005 1140.66,443.87 1134.78,444.142L873.089,444.142C867.214,443.87 865.708,444.005 859.908,442.92C851.217,441.294 842.845,438.047 835.33,433.389C830.315,430.28 829.294,429.165 824.771,425.405L583.602,205.251L421.365,205.251C421.365,737.708 421.365,1270.17 421.365,1802.62ZM349.698,1945.96C347.356,1945.84 345.006,1945.84 342.673,1945.61C335.669,1944.92 328.774,1943.2 322.272,1940.5C302.605,1932.36 287.296,1915.47 281.117,1895.09C279.754,1890.6 278.836,1885.99 278.376,1881.32C278.146,1878.98 278.146,1876.63 278.031,1874.29L278.031,133.583C278.146,131.242 278.146,128.892 278.376,126.559C279.065,119.555 280.793,112.66 283.486,106.158C291.632,86.4906 308.523,71.1814 328.894,65.002C333.386,63.6393 338.002,62.7212 342.673,62.2611C345.006,62.0313 347.356,62.031 349.698,61.916L611.394,61.916C617.268,62.1879 618.775,62.0534 624.574,63.1385C633.266,64.7647 641.637,68.0112 649.153,72.6697C654.167,75.7782 655.189,76.8932 659.711,80.6532L900.881,300.807L1106.99,300.807L1348.16,80.6532C1352.68,76.8932 1353.71,75.7782 1358.72,72.6697C1366.24,68.0112 1374.61,64.7647 1383.3,63.1385C1389.1,62.0534 1390.61,62.1879 1396.48,61.916L1658.18,61.916C1660.52,62.031 1662.87,62.0313 1665.2,62.2611C1672.2,62.9509 1679.1,64.6781 1685.6,67.3714C1705.27,75.5177 1720.58,92.4088 1726.76,112.779C1728.12,117.272 1729.04,121.887 1729.5,126.559C1729.73,128.892 1729.73,131.242 1729.84,133.583L1729.84,1874.29C1729.73,1876.63 1729.73,1878.98 1729.5,1881.32C1729.04,1885.99 1728.12,1890.6 1726.76,1895.09C1720.58,1915.47 1705.27,1932.36 1685.6,1940.5C1679.1,1943.2 1672.2,1944.92 1665.2,1945.61C1662.87,1945.84 1660.52,1945.84 1658.18,1945.96L1396.48,1945.96C1390.61,1945.69 1389.1,1945.82 1383.3,1944.74C1374.61,1943.11 1366.24,1939.86 1358.72,1935.2C1353.71,1932.1 1352.68,1930.98 1348.16,1927.22L1106.99,1707.07L900.881,1707.07L659.711,1927.22C655.189,1930.98 654.167,1932.1 649.153,1935.2C641.637,1939.86 633.266,1943.11 624.574,1944.74C618.775,1945.82 617.268,1945.69 611.394,1945.96C524.162,1945.96 436.93,1945.96 349.698,1945.96Z" style="fill:none;stroke-width:8.33px;stroke:rgb(28,168,97);"/>
            </g>
            <g id="T">
                <path d="M1267,847.77L1101.31,847.77L1101.31,1286.37L942.924,1286.37L942.924,847.77L776.417,847.77L776.417,709.691L1267,709.691L1267,847.77Z" style="fill:none;stroke-width:8.33px;stroke:rgb(28,168,97);"/>
            </g>
        </g>
    </g>
</svg>
