<?xml version="1.0" standalone="no"?>
<!DOCTYPE svg PUBLIC "-//W3C//DTD SVG 1.1//EN" "http://www.w3.org/Graphics/SVG/1.1/DTD/svg11.dtd">
<svg width="317px" height="80px" version="1.1" xmlns="http://www.w3.org/2000/svg" xmlns:xlink="http://www.w3.org/1999/xlink" xml:space="preserve" style="fill-rule:evenodd;clip-rule:evenodd;stroke-linejoin:round;stroke-miterlimit:1.41421;">
    <g>
        <g id="regular">
            <g>
                <path d="M3.23877,79.433C3.14075,79.4282 3.04238,79.4282 2.94472,79.4186C2.65154,79.3897 2.3629,79.3174 2.09072,79.2046C1.26746,78.8636 0.626618,78.1566 0.367949,77.3039C0.310906,77.1158 0.272477,76.9226 0.253216,76.7271C0.243597,76.6294 0.243585,76.531 0.23877,76.433L0.23877,3.56699C0.243585,3.46897 0.243597,3.3706 0.253216,3.27294C0.282091,2.97975 0.354392,2.69111 0.467131,2.41894C0.808135,1.59568 1.5152,0.954835 2.36792,0.696166C2.55596,0.639123 2.74916,0.600694 2.94472,0.581433C3.04238,0.571814 3.14075,0.571802 3.23877,0.566987L14.1934,0.566987C14.4393,0.578367 14.5023,0.572738 14.7451,0.618161C15.1089,0.686233 15.4594,0.822132 15.7739,1.01714C15.9839,1.14726 16.0266,1.19393 16.2159,1.35133L26.3113,10.567L34.9391,10.567L45.0345,1.35133C45.2238,1.19393 45.2666,1.14726 45.4765,1.01714C45.7911,0.822132 46.1415,0.686233 46.5053,0.618161C46.7481,0.572738 46.8112,0.578367 47.0571,0.566987L58.0117,0.566987C58.1097,0.571802 58.2081,0.571814 58.3057,0.581433C58.5989,0.610309 58.8876,0.682609 59.1597,0.795348C59.983,1.13635 60.6238,1.84342 60.8825,2.69613C60.9395,2.88418 60.978,3.07737 60.9972,3.27294C61.0069,3.3706 61.0069,3.46897 61.0117,3.56699L61.0117,19.8228L55.0117,19.8228L55.0117,6.56699L48.2205,6.56699L38.1251,15.7826C37.9358,15.94 37.893,15.9867 37.6831,16.1168C37.3685,16.3118 37.0181,16.4477 36.6543,16.5158C36.4115,16.5612 36.3484,16.5556 36.1025,16.567L25.1479,16.567C24.902,16.5556 24.839,16.5612 24.5962,16.5158C24.2324,16.4477 23.8819,16.3118 23.5673,16.1168C23.3574,15.9867 23.3146,15.94 23.1253,15.7826L13.03,6.56699L6.23877,6.56699L6.23877,73.433L13.03,73.433L23.1253,64.2174C23.3146,64.06 23.3574,64.0133 23.5673,63.8832C23.8819,63.6882 24.2324,63.5523 24.5962,63.4842C24.839,63.4388 24.902,63.4444 25.1479,63.433L36.1025,63.433C36.3484,63.4444 36.4115,63.4388 36.6543,63.4842C37.0181,63.5523 37.3685,63.6882 37.6831,63.8832C37.893,64.0133 37.9358,64.06 38.1251,64.2174L48.2205,73.433L55.0117,73.433L55.0117,59.3155L61.0117,59.3155L61.0117,76.433C61.0069,76.531 61.0069,76.6294 60.9972,76.7271C60.978,76.9226 60.9395,77.1158 60.8825,77.3039C60.6238,78.1566 59.983,78.8636 59.1597,79.2046C58.8876,79.3174 58.5989,79.3897 58.3057,79.4186C58.2081,79.4282 58.1097,79.4282 58.0117,79.433L47.0571,79.433C46.8112,79.4216 46.7481,79.4273 46.5053,79.3818C46.1415,79.3138 45.7911,79.1779 45.4765,78.9829C45.2666,78.8527 45.2238,78.8061 45.0345,78.6487L34.9391,69.433L26.3113,69.433L16.2159,78.6487C16.0266,78.8061 15.9839,78.8527 15.7739,78.9829C15.4594,79.1779 15.1089,79.3138 14.7451,79.3818C14.5023,79.4273 14.4393,79.4216 14.1934,79.433C10.5418,79.433 6.8903,79.433 3.23877,79.433Z" style="fill:rgb(28,168,97);fill-rule:nonzero;"/>
            </g>
            <path id="TICKETBASE" d="M42.0832,33.4628L35.1472,33.4628L35.1472,51.8228L28.5172,51.8228L28.5172,33.4628L21.5472,33.4628L21.5472,27.6828L42.0832,27.6828ZM54.4972,51.8228L54.4972,27.6828L61.1272,27.6828L61.1272,51.8228ZM73.9492,39.5488C73.9492,38.0755 74.2099,36.6249 74.7312,35.1968C75.2526,33.7688 76.0176,32.4882 77.0262,31.3548C78.0349,30.2215 79.2589,29.3035 80.6982,28.6008C82.1376,27.8982 83.7752,27.5468 85.6112,27.5468C87.7646,27.5468 89.6459,28.0285 91.2552,28.9918C92.8646,29.9552 94.0546,31.2302 94.8252,32.8168L89.7592,36.4208C89.5552,35.8315 89.2889,35.3442 88.9602,34.9588C88.6316,34.5735 88.2746,34.2675 87.8892,34.0408C87.5039,33.8142 87.0959,33.6555 86.6652,33.5648C86.2346,33.4742 85.8379,33.4288 85.4752,33.4288C84.6366,33.4288 83.9169,33.6158 83.3162,33.9898C82.7156,34.3638 82.2169,34.8512 81.8202,35.4518C81.4236,36.0525 81.1346,36.7325 80.9532,37.4918C80.7719,38.2512 80.6812,39.0048 80.6812,39.7528C80.6812,40.5915 80.7889,41.3962 81.0042,42.1668C81.2196,42.9375 81.5369,43.6175 81.9562,44.2068C82.3756,44.7962 82.8856,45.2665 83.4862,45.6178C84.0869,45.9692 84.7726,46.1448 85.5432,46.1448C85.9286,46.1448 86.3252,46.0938 86.7332,45.9918C87.1412,45.8898 87.5322,45.7198 87.9062,45.4818C88.2802,45.2438 88.6202,44.9378 88.9262,44.5638C89.2322,44.1898 89.4759,43.7308 89.6572,43.1868L95.0632,46.4168C94.7232,47.3008 94.2076,48.0942 93.5162,48.7968C92.8249,49.4995 92.0372,50.0888 91.1532,50.5648C90.2692,51.0408 89.3286,51.4035 88.3312,51.6528C87.3339,51.9022 86.3592,52.0268 85.4072,52.0268C83.7299,52.0268 82.1886,51.6698 80.7832,50.9558C79.3779,50.2418 78.1709,49.2955 77.1622,48.1168C76.1536,46.9382 75.3659,45.6009 74.7992,44.1048C74.2326,42.6088 73.9492,41.0902 73.9492,39.5488ZM107.545,51.8228L107.545,27.6828L114.175,27.6828L114.175,37.5428L122.199,27.6828L128.999,27.6828L120.227,38.4948L129.611,51.8228L122.675,51.8228L116.317,42.2008L114.175,44.6488L114.175,51.8228ZM158.175,46.0428L158.175,51.8228L140.971,51.8228L140.971,27.6828L157.869,27.6828L157.869,33.4628L147.601,33.4628L147.601,36.8628L156.373,36.8628L156.373,42.2348L147.601,42.2348L147.601,46.0428ZM190.071,33.4628L183.135,33.4628L183.135,51.8228L176.505,51.8228L176.505,33.4628L169.535,33.4628L169.535,27.6828L190.071,27.6828ZM223.021,45.6348C223.021,46.7229 222.795,47.6578 222.341,48.4398C221.888,49.2218 221.265,49.8622 220.471,50.3608C219.678,50.8595 218.754,51.2278 217.7,51.4658C216.646,51.7038 215.53,51.8228 214.351,51.8228L202.485,51.8228L202.485,27.6828L216.493,27.6828C217.332,27.6828 218.091,27.8642 218.771,28.2268C219.451,28.5895 220.029,29.0598 220.505,29.6378C220.981,30.2158 221.35,30.8732 221.61,31.6098C221.871,32.3465 222.001,33.1002 222.001,33.8708C222.001,35.0042 221.712,36.0865 221.134,37.1178C220.556,38.1492 219.689,38.9255 218.533,39.4468C219.916,39.8548 221.01,40.5632 221.814,41.5718C222.619,42.5805 223.021,43.9348 223.021,45.6348ZM216.289,44.2748C216.289,43.6855 216.131,43.1925 215.813,42.7958C215.496,42.3992 215.088,42.2008 214.589,42.2008L209.115,42.2008L209.115,46.2468L214.351,46.2468C214.895,46.2468 215.354,46.0768 215.728,45.7368C216.102,45.3968 216.289,44.9095 216.289,44.2748ZM209.115,33.3268L209.115,37.0328L213.637,37.0328C214.091,37.0328 214.504,36.9082 214.878,36.6588C215.252,36.4095 215.439,35.9108 215.439,35.1628C215.439,34.5055 215.281,34.0352 214.963,33.7518C214.646,33.4685 214.272,33.3268 213.841,33.3268ZM233.123,51.8228L242.133,27.6828L247.505,27.6828L256.481,51.8228L249.477,51.8228L248.015,47.0968L241.589,47.0968L240.161,51.8228ZM244.819,34.5848L242.575,42.6768L246.961,42.6768ZM282.733,35.5708C282.053,35.1628 281.351,34.8002 280.625,34.4828C280.013,34.2108 279.328,33.9558 278.568,33.7178C277.809,33.4798 277.067,33.3608 276.341,33.3608C275.752,33.3608 275.282,33.4515 274.93,33.6328C274.579,33.8142 274.403,34.1202 274.403,34.5508C274.403,34.8682 274.505,35.1288 274.709,35.3328C274.913,35.5368 275.208,35.7238 275.593,35.8938C275.979,36.0638 276.449,36.2282 277.004,36.3868C277.56,36.5455 278.189,36.7382 278.891,36.9648C280.002,37.3048 281.005,37.6788 281.9,38.0868C282.796,38.4948 283.561,38.9765 284.195,39.5318C284.83,40.0872 285.317,40.7615 285.657,41.5548C285.997,42.3482 286.167,43.3115 286.167,44.4448C286.167,45.8955 285.901,47.1138 285.368,48.0998C284.836,49.0858 284.133,49.8735 283.26,50.4628C282.388,51.0522 281.402,51.4772 280.302,51.7378C279.203,51.9985 278.098,52.1288 276.987,52.1288C276.103,52.1288 275.197,52.0608 274.267,51.9248C273.338,51.7888 272.414,51.5962 271.496,51.3468C270.578,51.0975 269.694,50.8028 268.844,50.4628C267.994,50.1228 267.207,49.7375 266.481,49.3068L269.337,43.4928C270.131,43.9915 270.958,44.4335 271.819,44.8188C272.545,45.1588 273.366,45.4648 274.284,45.7368C275.202,46.0088 276.137,46.1448 277.089,46.1448C277.815,46.1448 278.319,46.0485 278.602,45.8558C278.886,45.6632 279.027,45.4082 279.027,45.0908C279.027,44.7508 278.886,44.4618 278.602,44.2238C278.319,43.9858 277.928,43.7762 277.429,43.5948C276.931,43.4135 276.358,43.2322 275.712,43.0508C275.066,42.8695 274.381,42.6542 273.655,42.4048C272.59,42.0422 271.672,41.6512 270.901,41.2318C270.131,40.8125 269.496,40.3365 268.997,39.8038C268.499,39.2712 268.13,38.6648 267.892,37.9848C267.654,37.3048 267.535,36.5228 267.535,35.6388C267.535,34.3015 267.779,33.1228 268.266,32.1028C268.754,31.0828 269.417,30.2328 270.255,29.5528C271.094,28.8728 272.052,28.3572 273.128,28.0058C274.205,27.6545 275.344,27.4788 276.545,27.4788C277.429,27.4788 278.291,27.5638 279.129,27.7338C279.968,27.9038 280.778,28.1192 281.56,28.3798C282.342,28.6405 283.073,28.9238 283.753,29.2298C284.433,29.5358 285.045,29.8248 285.589,30.0968ZM316.295,46.0428L316.295,51.8228L299.091,51.8228L299.091,27.6828L315.989,27.6828L315.989,33.4628L305.721,33.4628L305.721,36.8628L314.493,36.8628L314.493,42.2348L305.721,42.2348L305.721,46.0428Z" style="fill:rgb(12,67,94);"/>
        </g>
    </g>
</svg>
